<svg viewBox="0 0 12 12" fill="none" xmlns="http://www.w3.org/2000/svg">
  <path fill-rule="evenodd" clip-rule="evenodd" d="M1.5286 0.585848C1.26825 0.325499 0.846142 0.325499 0.585793 0.585848C0.325444 0.846196 0.325444 1.26831 0.585793 1.52866L5.05719 6.00006L0.585793 10.4715C0.325444 10.7318 0.325444 11.1539 0.585793 11.4143C0.846142 11.6746 1.26825 11.6746 1.5286 11.4143L6 6.94287L10.4714 11.4143C10.7318 11.6746 11.1539 11.6746 11.4142 11.4143C11.6746 11.1539 11.6746 10.7318 11.4142 10.4715L6.94281 6.00006L11.4142 1.52866C11.6746 1.26831 11.6746 0.846196 11.4142 0.585848C11.1539 0.325499 10.7318 0.325499 10.4714 0.585848L6 5.05725L1.5286 0.585848Z" fill="currentColor"/>
</svg>